<!DOCTYPE svg PUBLIC "-//W3C//DTD SVG 1.1//EN" "http://www.w3.org/Graphics/SVG/1.1/DTD/svg11.dtd">
<!-- Uploaded to: SVG Repo, www.svgrepo.com, Transformed by: SVG Repo Mixer Tools -->
<svg width="800px" height="800px" viewBox="0 0 20 20" xmlns="http://www.w3.org/2000/svg" fill="none">
<g id="SVGRepo_bgCarrier" stroke-width="0"/>
<g id="SVGRepo_tracerCarrier" stroke-linecap="round" stroke-linejoin="round"/>
<g id="SVGRepo_iconCarrier"> <path fill="#F0DFAD" fill-rule="evenodd" d="M10 3a7 7 0 100 14 7 7 0 000-14zm-9 7a9 9 0 1118 0 9 9 0 01-18 0zm9.707-5.707l3 3a1 1 0 01-1.414 1.414L10 6.414 7.707 8.707a1 1 0 01-1.414-1.414l3-3a1 1 0 011.414 0zm-4.414 8.414l3 3a1 1 0 001.414 0l3-3a1 1 0 00-1.414-1.414L10 13.586l-2.293-2.293a1 1 0 00-1.414 1.414z"/> </g>
</svg>